<?xml version="1.0" encoding="UTF-8" standalone="no"?>
<!DOCTYPE svg PUBLIC "-//W3C//DTD SVG 1.1//EN"
 "http://www.w3.org/Graphics/SVG/1.1/DTD/svg11.dtd">
<!-- Generated by graphviz version 2.47.1 (20210417.1919)
 -->
<!-- Title: Tree Pages: 1 -->
<svg width="1828pt" height="552pt"
 viewBox="0.00 0.00 1827.50 552.00" xmlns="http://www.w3.org/2000/svg" xmlns:xlink="http://www.w3.org/1999/xlink">
<g id="graph0" class="graph" transform="scale(1 1) rotate(0) translate(4 548)">
<title>Tree</title>
<polygon fill="white" stroke="transparent" points="-4,4 -4,-548 1823.5,-548 1823.5,4 -4,4"/>
<!-- 0 -->
<g id="node1" class="node">
<title>0</title>
<polygon fill="#edaa79" stroke="black" points="1107.5,-544 969.5,-544 969.5,-461 1107.5,-461 1107.5,-544"/>
<text text-anchor="middle" x="1038.5" y="-528.8" font-family="Times New Roman,serif" font-size="14.00">race &lt;= 0.5</text>
<text text-anchor="middle" x="1038.5" y="-513.8" font-family="Times New Roman,serif" font-size="14.00">gini = 0.368</text>
<text text-anchor="middle" x="1038.5" y="-498.8" font-family="Times New Roman,serif" font-size="14.00">samples = 26048</text>
<text text-anchor="middle" x="1038.5" y="-483.8" font-family="Times New Roman,serif" font-size="14.00">value = [19705, 6343]</text>
<text text-anchor="middle" x="1038.5" y="-468.8" font-family="Times New Roman,serif" font-size="14.00">class = i</text>
</g>
<!-- 1 -->
<g id="node2" class="node">
<title>1</title>
<polygon fill="#fae8db" stroke="black" points="866,-425 719,-425 719,-342 866,-342 866,-425"/>
<text text-anchor="middle" x="792.5" y="-409.8" font-family="Times New Roman,serif" font-size="14.00">education&#45;num &lt;= 12.5</text>
<text text-anchor="middle" x="792.5" y="-394.8" font-family="Times New Roman,serif" font-size="14.00">gini = 0.495</text>
<text text-anchor="middle" x="792.5" y="-379.8" font-family="Times New Roman,serif" font-size="14.00">samples = 10564</text>
<text text-anchor="middle" x="792.5" y="-364.8" font-family="Times New Roman,serif" font-size="14.00">value = [5809, 4755]</text>
<text text-anchor="middle" x="792.5" y="-349.8" font-family="Times New Roman,serif" font-size="14.00">class = i</text>
</g>
<!-- 0&#45;&gt;1 -->
<g id="edge1" class="edge">
<title>0&#45;&gt;1</title>
<path fill="none" stroke="black" d="M969.32,-468.6C940.21,-454.75 906.1,-438.53 875.64,-424.04"/>
<polygon fill="black" stroke="black" points="876.85,-420.74 866.32,-419.61 873.84,-427.06 876.85,-420.74"/>
<text text-anchor="middle" x="874.69" y="-439.46" font-family="Times New Roman,serif" font-size="14.00">True</text>
</g>
<!-- 16 -->
<g id="node17" class="node">
<title>16</title>
<polygon fill="#e88f50" stroke="black" points="1371,-425 1230,-425 1230,-342 1371,-342 1371,-425"/>
<text text-anchor="middle" x="1300.5" y="-409.8" font-family="Times New Roman,serif" font-size="14.00">capital&#45;loss &lt;= 7073.5</text>
<text text-anchor="middle" x="1300.5" y="-394.8" font-family="Times New Roman,serif" font-size="14.00">gini = 0.184</text>
<text text-anchor="middle" x="1300.5" y="-379.8" font-family="Times New Roman,serif" font-size="14.00">samples = 15484</text>
<text text-anchor="middle" x="1300.5" y="-364.8" font-family="Times New Roman,serif" font-size="14.00">value = [13896, 1588]</text>
<text text-anchor="middle" x="1300.5" y="-349.8" font-family="Times New Roman,serif" font-size="14.00">class = i</text>
</g>
<!-- 0&#45;&gt;16 -->
<g id="edge16" class="edge">
<title>0&#45;&gt;16</title>
<path fill="none" stroke="black" d="M1107.68,-470.61C1142.19,-455.19 1184.14,-436.46 1220.08,-420.41"/>
<polygon fill="black" stroke="black" points="1221.86,-423.45 1229.56,-416.18 1219,-417.06 1221.86,-423.45"/>
<text text-anchor="middle" x="1220.63" y="-435.83" font-family="Times New Roman,serif" font-size="14.00">False</text>
</g>
<!-- 2 -->
<g id="node3" class="node">
<title>2</title>
<polygon fill="#f2bf9b" stroke="black" points="477,-306 336,-306 336,-223 477,-223 477,-306"/>
<text text-anchor="middle" x="406.5" y="-290.8" font-family="Times New Roman,serif" font-size="14.00">capital&#45;loss &lt;= 5095.5</text>
<text text-anchor="middle" x="406.5" y="-275.8" font-family="Times New Roman,serif" font-size="14.00">gini = 0.443</text>
<text text-anchor="middle" x="406.5" y="-260.8" font-family="Times New Roman,serif" font-size="14.00">samples = 7363</text>
<text text-anchor="middle" x="406.5" y="-245.8" font-family="Times New Roman,serif" font-size="14.00">value = [4929, 2434]</text>
<text text-anchor="middle" x="406.5" y="-230.8" font-family="Times New Roman,serif" font-size="14.00">class = i</text>
</g>
<!-- 1&#45;&gt;2 -->
<g id="edge2" class="edge">
<title>1&#45;&gt;2</title>
<path fill="none" stroke="black" d="M718.99,-360.22C652.69,-340.12 555.38,-310.63 487,-289.9"/>
<polygon fill="black" stroke="black" points="487.72,-286.46 477.13,-286.91 485.69,-293.16 487.72,-286.46"/>
</g>
<!-- 9 -->
<g id="node10" class="node">
<title>9</title>
<polygon fill="#84c2ef" stroke="black" points="863,-306 722,-306 722,-223 863,-223 863,-306"/>
<text text-anchor="middle" x="792.5" y="-290.8" font-family="Times New Roman,serif" font-size="14.00">capital&#45;loss &lt;= 5095.5</text>
<text text-anchor="middle" x="792.5" y="-275.8" font-family="Times New Roman,serif" font-size="14.00">gini = 0.399</text>
<text text-anchor="middle" x="792.5" y="-260.8" font-family="Times New Roman,serif" font-size="14.00">samples = 3201</text>
<text text-anchor="middle" x="792.5" y="-245.8" font-family="Times New Roman,serif" font-size="14.00">value = [880, 2321]</text>
<text text-anchor="middle" x="792.5" y="-230.8" font-family="Times New Roman,serif" font-size="14.00">class = n</text>
</g>
<!-- 1&#45;&gt;9 -->
<g id="edge9" class="edge">
<title>1&#45;&gt;9</title>
<path fill="none" stroke="black" d="M792.5,-341.91C792.5,-333.65 792.5,-324.86 792.5,-316.3"/>
<polygon fill="black" stroke="black" points="796,-316.02 792.5,-306.02 789,-316.02 796,-316.02"/>
</g>
<!-- 3 -->
<g id="node4" class="node">
<title>3</title>
<polygon fill="#f0b68d" stroke="black" points="278.5,-187 138.5,-187 138.5,-104 278.5,-104 278.5,-187"/>
<text text-anchor="middle" x="208.5" y="-171.8" font-family="Times New Roman,serif" font-size="14.00">education&#45;num &lt;= 8.5</text>
<text text-anchor="middle" x="208.5" y="-156.8" font-family="Times New Roman,serif" font-size="14.00">gini = 0.418</text>
<text text-anchor="middle" x="208.5" y="-141.8" font-family="Times New Roman,serif" font-size="14.00">samples = 7000</text>
<text text-anchor="middle" x="208.5" y="-126.8" font-family="Times New Roman,serif" font-size="14.00">value = [4921, 2079]</text>
<text text-anchor="middle" x="208.5" y="-111.8" font-family="Times New Roman,serif" font-size="14.00">class = i</text>
</g>
<!-- 2&#45;&gt;3 -->
<g id="edge3" class="edge">
<title>2&#45;&gt;3</title>
<path fill="none" stroke="black" d="M337.8,-222.91C321.06,-213.02 303.05,-202.37 285.93,-192.25"/>
<polygon fill="black" stroke="black" points="287.46,-189.09 277.07,-187.02 283.9,-195.12 287.46,-189.09"/>
</g>
<!-- 6 -->
<g id="node7" class="node">
<title>6</title>
<polygon fill="#3d9fe6" stroke="black" points="458.5,-187 354.5,-187 354.5,-104 458.5,-104 458.5,-187"/>
<text text-anchor="middle" x="406.5" y="-171.8" font-family="Times New Roman,serif" font-size="14.00">age &lt;= 61.5</text>
<text text-anchor="middle" x="406.5" y="-156.8" font-family="Times New Roman,serif" font-size="14.00">gini = 0.043</text>
<text text-anchor="middle" x="406.5" y="-141.8" font-family="Times New Roman,serif" font-size="14.00">samples = 363</text>
<text text-anchor="middle" x="406.5" y="-126.8" font-family="Times New Roman,serif" font-size="14.00">value = [8, 355]</text>
<text text-anchor="middle" x="406.5" y="-111.8" font-family="Times New Roman,serif" font-size="14.00">class = n</text>
</g>
<!-- 2&#45;&gt;6 -->
<g id="edge6" class="edge">
<title>2&#45;&gt;6</title>
<path fill="none" stroke="black" d="M406.5,-222.91C406.5,-214.65 406.5,-205.86 406.5,-197.3"/>
<polygon fill="black" stroke="black" points="410,-197.02 406.5,-187.02 403,-197.02 410,-197.02"/>
</g>
<!-- 4 -->
<g id="node5" class="node">
<title>4</title>
<polygon fill="#e88f4f" stroke="black" points="125,-68 0,-68 0,0 125,0 125,-68"/>
<text text-anchor="middle" x="62.5" y="-52.8" font-family="Times New Roman,serif" font-size="14.00">gini = 0.177</text>
<text text-anchor="middle" x="62.5" y="-37.8" font-family="Times New Roman,serif" font-size="14.00">samples = 1173</text>
<text text-anchor="middle" x="62.5" y="-22.8" font-family="Times New Roman,serif" font-size="14.00">value = [1058, 115]</text>
<text text-anchor="middle" x="62.5" y="-7.8" font-family="Times New Roman,serif" font-size="14.00">class = i</text>
</g>
<!-- 3&#45;&gt;4 -->
<g id="edge4" class="edge">
<title>3&#45;&gt;4</title>
<path fill="none" stroke="black" d="M154.13,-103.73C141.37,-94.15 127.78,-83.96 115.09,-74.44"/>
<polygon fill="black" stroke="black" points="117,-71.5 106.9,-68.3 112.8,-77.1 117,-71.5"/>
</g>
<!-- 5 -->
<g id="node6" class="node">
<title>5</title>
<polygon fill="#f2c19e" stroke="black" points="274,-68 143,-68 143,0 274,0 274,-68"/>
<text text-anchor="middle" x="208.5" y="-52.8" font-family="Times New Roman,serif" font-size="14.00">gini = 0.447</text>
<text text-anchor="middle" x="208.5" y="-37.8" font-family="Times New Roman,serif" font-size="14.00">samples = 5827</text>
<text text-anchor="middle" x="208.5" y="-22.8" font-family="Times New Roman,serif" font-size="14.00">value = [3863, 1964]</text>
<text text-anchor="middle" x="208.5" y="-7.8" font-family="Times New Roman,serif" font-size="14.00">class = i</text>
</g>
<!-- 3&#45;&gt;5 -->
<g id="edge5" class="edge">
<title>3&#45;&gt;5</title>
<path fill="none" stroke="black" d="M208.5,-103.73C208.5,-95.52 208.5,-86.86 208.5,-78.56"/>
<polygon fill="black" stroke="black" points="212,-78.3 208.5,-68.3 205,-78.3 212,-78.3"/>
</g>
<!-- 7 -->
<g id="node8" class="node">
<title>7</title>
<polygon fill="#399de5" stroke="black" points="396.5,-68 292.5,-68 292.5,0 396.5,0 396.5,-68"/>
<text text-anchor="middle" x="344.5" y="-52.8" font-family="Times New Roman,serif" font-size="14.00">gini = 0.0</text>
<text text-anchor="middle" x="344.5" y="-37.8" font-family="Times New Roman,serif" font-size="14.00">samples = 317</text>
<text text-anchor="middle" x="344.5" y="-22.8" font-family="Times New Roman,serif" font-size="14.00">value = [0, 317]</text>
<text text-anchor="middle" x="344.5" y="-7.8" font-family="Times New Roman,serif" font-size="14.00">class = n</text>
</g>
<!-- 6&#45;&gt;7 -->
<g id="edge7" class="edge">
<title>6&#45;&gt;7</title>
<path fill="none" stroke="black" d="M383.41,-103.73C378.51,-95.06 373.32,-85.9 368.38,-77.18"/>
<polygon fill="black" stroke="black" points="371.33,-75.28 363.35,-68.3 365.24,-78.73 371.33,-75.28"/>
</g>
<!-- 8 -->
<g id="node9" class="node">
<title>8</title>
<polygon fill="#63b2ea" stroke="black" points="512.5,-68 414.5,-68 414.5,0 512.5,0 512.5,-68"/>
<text text-anchor="middle" x="463.5" y="-52.8" font-family="Times New Roman,serif" font-size="14.00">gini = 0.287</text>
<text text-anchor="middle" x="463.5" y="-37.8" font-family="Times New Roman,serif" font-size="14.00">samples = 46</text>
<text text-anchor="middle" x="463.5" y="-22.8" font-family="Times New Roman,serif" font-size="14.00">value = [8, 38]</text>
<text text-anchor="middle" x="463.5" y="-7.8" font-family="Times New Roman,serif" font-size="14.00">class = n</text>
</g>
<!-- 6&#45;&gt;8 -->
<g id="edge8" class="edge">
<title>6&#45;&gt;8</title>
<path fill="none" stroke="black" d="M427.72,-103.73C432.24,-95.06 437.01,-85.9 441.54,-77.18"/>
<polygon fill="black" stroke="black" points="444.65,-78.79 446.17,-68.3 438.44,-75.55 444.65,-78.79"/>
</g>
<!-- 10 -->
<g id="node11" class="node">
<title>10</title>
<polygon fill="#98ccf2" stroke="black" points="799,-187 634,-187 634,-104 799,-104 799,-187"/>
<text text-anchor="middle" x="716.5" y="-171.8" font-family="Times New Roman,serif" font-size="14.00">hours&#45;per&#45;week &lt;= 1782.5</text>
<text text-anchor="middle" x="716.5" y="-156.8" font-family="Times New Roman,serif" font-size="14.00">gini = 0.439</text>
<text text-anchor="middle" x="716.5" y="-141.8" font-family="Times New Roman,serif" font-size="14.00">samples = 2696</text>
<text text-anchor="middle" x="716.5" y="-126.8" font-family="Times New Roman,serif" font-size="14.00">value = [877, 1819]</text>
<text text-anchor="middle" x="716.5" y="-111.8" font-family="Times New Roman,serif" font-size="14.00">class = n</text>
</g>
<!-- 9&#45;&gt;10 -->
<g id="edge10" class="edge">
<title>9&#45;&gt;10</title>
<path fill="none" stroke="black" d="M766.13,-222.91C760.41,-214.1 754.31,-204.7 748.4,-195.61"/>
<polygon fill="black" stroke="black" points="751.2,-193.5 742.82,-187.02 745.33,-197.31 751.2,-193.5"/>
</g>
<!-- 13 -->
<g id="node14" class="node">
<title>13</title>
<polygon fill="#3a9ee5" stroke="black" points="921.5,-187 817.5,-187 817.5,-104 921.5,-104 921.5,-187"/>
<text text-anchor="middle" x="869.5" y="-171.8" font-family="Times New Roman,serif" font-size="14.00">age &lt;= 84.5</text>
<text text-anchor="middle" x="869.5" y="-156.8" font-family="Times New Roman,serif" font-size="14.00">gini = 0.012</text>
<text text-anchor="middle" x="869.5" y="-141.8" font-family="Times New Roman,serif" font-size="14.00">samples = 505</text>
<text text-anchor="middle" x="869.5" y="-126.8" font-family="Times New Roman,serif" font-size="14.00">value = [3, 502]</text>
<text text-anchor="middle" x="869.5" y="-111.8" font-family="Times New Roman,serif" font-size="14.00">class = n</text>
</g>
<!-- 9&#45;&gt;13 -->
<g id="edge13" class="edge">
<title>9&#45;&gt;13</title>
<path fill="none" stroke="black" d="M819.21,-222.91C825.01,-214.1 831.2,-204.7 837.18,-195.61"/>
<polygon fill="black" stroke="black" points="840.26,-197.3 842.83,-187.02 834.41,-193.45 840.26,-197.3"/>
</g>
<!-- 11 -->
<g id="node12" class="node">
<title>11</title>
<polygon fill="#a8d4f4" stroke="black" points="656,-68 531,-68 531,0 656,0 656,-68"/>
<text text-anchor="middle" x="593.5" y="-52.8" font-family="Times New Roman,serif" font-size="14.00">gini = 0.46</text>
<text text-anchor="middle" x="593.5" y="-37.8" font-family="Times New Roman,serif" font-size="14.00">samples = 2412</text>
<text text-anchor="middle" x="593.5" y="-22.8" font-family="Times New Roman,serif" font-size="14.00">value = [866, 1546]</text>
<text text-anchor="middle" x="593.5" y="-7.8" font-family="Times New Roman,serif" font-size="14.00">class = n</text>
</g>
<!-- 10&#45;&gt;11 -->
<g id="edge11" class="edge">
<title>10&#45;&gt;11</title>
<path fill="none" stroke="black" d="M670.7,-103.73C660.15,-94.33 648.93,-84.35 638.42,-74.99"/>
<polygon fill="black" stroke="black" points="640.7,-72.33 630.91,-68.3 636.05,-77.56 640.7,-72.33"/>
</g>
<!-- 12 -->
<g id="node13" class="node">
<title>12</title>
<polygon fill="#41a1e6" stroke="black" points="785,-68 674,-68 674,0 785,0 785,-68"/>
<text text-anchor="middle" x="729.5" y="-52.8" font-family="Times New Roman,serif" font-size="14.00">gini = 0.074</text>
<text text-anchor="middle" x="729.5" y="-37.8" font-family="Times New Roman,serif" font-size="14.00">samples = 284</text>
<text text-anchor="middle" x="729.5" y="-22.8" font-family="Times New Roman,serif" font-size="14.00">value = [11, 273]</text>
<text text-anchor="middle" x="729.5" y="-7.8" font-family="Times New Roman,serif" font-size="14.00">class = n</text>
</g>
<!-- 10&#45;&gt;12 -->
<g id="edge12" class="edge">
<title>10&#45;&gt;12</title>
<path fill="none" stroke="black" d="M721.34,-103.73C722.33,-95.43 723.37,-86.67 724.36,-78.28"/>
<polygon fill="black" stroke="black" points="727.84,-78.64 725.55,-68.3 720.89,-77.82 727.84,-78.64"/>
</g>
<!-- 14 -->
<g id="node15" class="node">
<title>14</title>
<polygon fill="#3a9de5" stroke="black" points="907.5,-68 803.5,-68 803.5,0 907.5,0 907.5,-68"/>
<text text-anchor="middle" x="855.5" y="-52.8" font-family="Times New Roman,serif" font-size="14.00">gini = 0.008</text>
<text text-anchor="middle" x="855.5" y="-37.8" font-family="Times New Roman,serif" font-size="14.00">samples = 501</text>
<text text-anchor="middle" x="855.5" y="-22.8" font-family="Times New Roman,serif" font-size="14.00">value = [2, 499]</text>
<text text-anchor="middle" x="855.5" y="-7.8" font-family="Times New Roman,serif" font-size="14.00">class = n</text>
</g>
<!-- 13&#45;&gt;14 -->
<g id="edge14" class="edge">
<title>13&#45;&gt;14</title>
<path fill="none" stroke="black" d="M864.29,-103.73C863.23,-95.43 862.11,-86.67 861.03,-78.28"/>
<polygon fill="black" stroke="black" points="864.5,-77.77 859.76,-68.3 857.55,-78.66 864.5,-77.77"/>
</g>
<!-- 15 -->
<g id="node16" class="node">
<title>15</title>
<polygon fill="#7bbeee" stroke="black" points="1017,-68 926,-68 926,0 1017,0 1017,-68"/>
<text text-anchor="middle" x="971.5" y="-52.8" font-family="Times New Roman,serif" font-size="14.00">gini = 0.375</text>
<text text-anchor="middle" x="971.5" y="-37.8" font-family="Times New Roman,serif" font-size="14.00">samples = 4</text>
<text text-anchor="middle" x="971.5" y="-22.8" font-family="Times New Roman,serif" font-size="14.00">value = [1, 3]</text>
<text text-anchor="middle" x="971.5" y="-7.8" font-family="Times New Roman,serif" font-size="14.00">class = n</text>
</g>
<!-- 13&#45;&gt;15 -->
<g id="edge15" class="edge">
<title>13&#45;&gt;15</title>
<path fill="none" stroke="black" d="M907.48,-103.73C915.98,-94.61 924.99,-84.93 933.49,-75.81"/>
<polygon fill="black" stroke="black" points="936.23,-78 940.48,-68.3 931.1,-73.23 936.23,-78"/>
</g>
<!-- 17 -->
<g id="node18" class="node">
<title>17</title>
<polygon fill="#e78c4b" stroke="black" points="1369.5,-306 1231.5,-306 1231.5,-223 1369.5,-223 1369.5,-306"/>
<text text-anchor="middle" x="1300.5" y="-290.8" font-family="Times New Roman,serif" font-size="14.00">race &lt;= 4.5</text>
<text text-anchor="middle" x="1300.5" y="-275.8" font-family="Times New Roman,serif" font-size="14.00">gini = 0.151</text>
<text text-anchor="middle" x="1300.5" y="-260.8" font-family="Times New Roman,serif" font-size="14.00">samples = 15124</text>
<text text-anchor="middle" x="1300.5" y="-245.8" font-family="Times New Roman,serif" font-size="14.00">value = [13884, 1240]</text>
<text text-anchor="middle" x="1300.5" y="-230.8" font-family="Times New Roman,serif" font-size="14.00">class = i</text>
</g>
<!-- 16&#45;&gt;17 -->
<g id="edge17" class="edge">
<title>16&#45;&gt;17</title>
<path fill="none" stroke="black" d="M1300.5,-341.91C1300.5,-333.65 1300.5,-324.86 1300.5,-316.3"/>
<polygon fill="black" stroke="black" points="1304,-316.02 1300.5,-306.02 1297,-316.02 1304,-316.02"/>
</g>
<!-- 24 -->
<g id="node25" class="node">
<title>24</title>
<polygon fill="#40a0e6" stroke="black" points="1579,-306 1468,-306 1468,-223 1579,-223 1579,-306"/>
<text text-anchor="middle" x="1523.5" y="-290.8" font-family="Times New Roman,serif" font-size="14.00">age &lt;= 21.0</text>
<text text-anchor="middle" x="1523.5" y="-275.8" font-family="Times New Roman,serif" font-size="14.00">gini = 0.064</text>
<text text-anchor="middle" x="1523.5" y="-260.8" font-family="Times New Roman,serif" font-size="14.00">samples = 360</text>
<text text-anchor="middle" x="1523.5" y="-245.8" font-family="Times New Roman,serif" font-size="14.00">value = [12, 348]</text>
<text text-anchor="middle" x="1523.5" y="-230.8" font-family="Times New Roman,serif" font-size="14.00">class = n</text>
</g>
<!-- 16&#45;&gt;24 -->
<g id="edge24" class="edge">
<title>16&#45;&gt;24</title>
<path fill="none" stroke="black" d="M1371.06,-345.48C1399.15,-330.74 1431.26,-313.9 1458.74,-299.48"/>
<polygon fill="black" stroke="black" points="1460.65,-302.43 1467.87,-294.68 1457.39,-296.23 1460.65,-302.43"/>
</g>
<!-- 18 -->
<g id="node19" class="node">
<title>18</title>
<polygon fill="#e68844" stroke="black" points="1295,-187 1148,-187 1148,-104 1295,-104 1295,-187"/>
<text text-anchor="middle" x="1221.5" y="-171.8" font-family="Times New Roman,serif" font-size="14.00">education&#45;num &lt;= 12.5</text>
<text text-anchor="middle" x="1221.5" y="-156.8" font-family="Times New Roman,serif" font-size="14.00">gini = 0.098</text>
<text text-anchor="middle" x="1221.5" y="-141.8" font-family="Times New Roman,serif" font-size="14.00">samples = 13947</text>
<text text-anchor="middle" x="1221.5" y="-126.8" font-family="Times New Roman,serif" font-size="14.00">value = [13225, 722]</text>
<text text-anchor="middle" x="1221.5" y="-111.8" font-family="Times New Roman,serif" font-size="14.00">class = i</text>
</g>
<!-- 17&#45;&gt;18 -->
<g id="edge18" class="edge">
<title>17&#45;&gt;18</title>
<path fill="none" stroke="black" d="M1273.09,-222.91C1267.09,-214.01 1260.67,-204.51 1254.47,-195.33"/>
<polygon fill="black" stroke="black" points="1257.36,-193.35 1248.86,-187.02 1251.56,-197.27 1257.36,-193.35"/>
</g>
<!-- 21 -->
<g id="node22" class="node">
<title>21</title>
<polygon fill="#f9e4d5" stroke="black" points="1460,-187 1313,-187 1313,-104 1460,-104 1460,-187"/>
<text text-anchor="middle" x="1386.5" y="-171.8" font-family="Times New Roman,serif" font-size="14.00">education&#45;num &lt;= 10.5</text>
<text text-anchor="middle" x="1386.5" y="-156.8" font-family="Times New Roman,serif" font-size="14.00">gini = 0.493</text>
<text text-anchor="middle" x="1386.5" y="-141.8" font-family="Times New Roman,serif" font-size="14.00">samples = 1177</text>
<text text-anchor="middle" x="1386.5" y="-126.8" font-family="Times New Roman,serif" font-size="14.00">value = [659, 518]</text>
<text text-anchor="middle" x="1386.5" y="-111.8" font-family="Times New Roman,serif" font-size="14.00">class = i</text>
</g>
<!-- 17&#45;&gt;21 -->
<g id="edge21" class="edge">
<title>17&#45;&gt;21</title>
<path fill="none" stroke="black" d="M1330.34,-222.91C1336.87,-214.01 1343.86,-204.51 1350.61,-195.33"/>
<polygon fill="black" stroke="black" points="1353.61,-197.15 1356.72,-187.02 1347.97,-193.01 1353.61,-197.15"/>
</g>
<!-- 19 -->
<g id="node20" class="node">
<title>19</title>
<polygon fill="#e6843e" stroke="black" points="1166,-68 1035,-68 1035,0 1166,0 1166,-68"/>
<text text-anchor="middle" x="1100.5" y="-52.8" font-family="Times New Roman,serif" font-size="14.00">gini = 0.051</text>
<text text-anchor="middle" x="1100.5" y="-37.8" font-family="Times New Roman,serif" font-size="14.00">samples = 11153</text>
<text text-anchor="middle" x="1100.5" y="-22.8" font-family="Times New Roman,serif" font-size="14.00">value = [10859, 294]</text>
<text text-anchor="middle" x="1100.5" y="-7.8" font-family="Times New Roman,serif" font-size="14.00">class = i</text>
</g>
<!-- 18&#45;&gt;19 -->
<g id="edge19" class="edge">
<title>18&#45;&gt;19</title>
<path fill="none" stroke="black" d="M1176.44,-103.73C1166.16,-94.42 1155.25,-84.54 1144.99,-75.26"/>
<polygon fill="black" stroke="black" points="1147.06,-72.41 1137.3,-68.3 1142.36,-77.6 1147.06,-72.41"/>
</g>
<!-- 20 -->
<g id="node21" class="node">
<title>20</title>
<polygon fill="#ea985d" stroke="black" points="1309,-68 1184,-68 1184,0 1309,0 1309,-68"/>
<text text-anchor="middle" x="1246.5" y="-52.8" font-family="Times New Roman,serif" font-size="14.00">gini = 0.259</text>
<text text-anchor="middle" x="1246.5" y="-37.8" font-family="Times New Roman,serif" font-size="14.00">samples = 2794</text>
<text text-anchor="middle" x="1246.5" y="-22.8" font-family="Times New Roman,serif" font-size="14.00">value = [2366, 428]</text>
<text text-anchor="middle" x="1246.5" y="-7.8" font-family="Times New Roman,serif" font-size="14.00">class = i</text>
</g>
<!-- 18&#45;&gt;20 -->
<g id="edge20" class="edge">
<title>18&#45;&gt;20</title>
<path fill="none" stroke="black" d="M1230.81,-103.73C1232.7,-95.43 1234.7,-86.67 1236.62,-78.28"/>
<polygon fill="black" stroke="black" points="1240.08,-78.83 1238.9,-68.3 1233.26,-77.27 1240.08,-78.83"/>
</g>
<!-- 22 -->
<g id="node23" class="node">
<title>22</title>
<polygon fill="#f1be98" stroke="black" points="1445.5,-68 1327.5,-68 1327.5,0 1445.5,0 1445.5,-68"/>
<text text-anchor="middle" x="1386.5" y="-52.8" font-family="Times New Roman,serif" font-size="14.00">gini = 0.439</text>
<text text-anchor="middle" x="1386.5" y="-37.8" font-family="Times New Roman,serif" font-size="14.00">samples = 730</text>
<text text-anchor="middle" x="1386.5" y="-22.8" font-family="Times New Roman,serif" font-size="14.00">value = [493, 237]</text>
<text text-anchor="middle" x="1386.5" y="-7.8" font-family="Times New Roman,serif" font-size="14.00">class = i</text>
</g>
<!-- 21&#45;&gt;22 -->
<g id="edge22" class="edge">
<title>21&#45;&gt;22</title>
<path fill="none" stroke="black" d="M1386.5,-103.73C1386.5,-95.52 1386.5,-86.86 1386.5,-78.56"/>
<polygon fill="black" stroke="black" points="1390,-78.3 1386.5,-68.3 1383,-78.3 1390,-78.3"/>
</g>
<!-- 23 -->
<g id="node24" class="node">
<title>23</title>
<polygon fill="#aed7f4" stroke="black" points="1581.5,-68 1463.5,-68 1463.5,0 1581.5,0 1581.5,-68"/>
<text text-anchor="middle" x="1522.5" y="-52.8" font-family="Times New Roman,serif" font-size="14.00">gini = 0.467</text>
<text text-anchor="middle" x="1522.5" y="-37.8" font-family="Times New Roman,serif" font-size="14.00">samples = 447</text>
<text text-anchor="middle" x="1522.5" y="-22.8" font-family="Times New Roman,serif" font-size="14.00">value = [166, 281]</text>
<text text-anchor="middle" x="1522.5" y="-7.8" font-family="Times New Roman,serif" font-size="14.00">class = n</text>
</g>
<!-- 21&#45;&gt;23 -->
<g id="edge23" class="edge">
<title>21&#45;&gt;23</title>
<path fill="none" stroke="black" d="M1437.14,-103.73C1448.92,-94.24 1461.45,-84.16 1473.17,-74.72"/>
<polygon fill="black" stroke="black" points="1475.55,-77.3 1481.14,-68.3 1471.16,-71.84 1475.55,-77.3"/>
</g>
<!-- 25 -->
<g id="node26" class="node">
<title>25</title>
<polygon fill="#e58139" stroke="black" points="1569,-179.5 1478,-179.5 1478,-111.5 1569,-111.5 1569,-179.5"/>
<text text-anchor="middle" x="1523.5" y="-164.3" font-family="Times New Roman,serif" font-size="14.00">gini = 0.0</text>
<text text-anchor="middle" x="1523.5" y="-149.3" font-family="Times New Roman,serif" font-size="14.00">samples = 3</text>
<text text-anchor="middle" x="1523.5" y="-134.3" font-family="Times New Roman,serif" font-size="14.00">value = [3, 0]</text>
<text text-anchor="middle" x="1523.5" y="-119.3" font-family="Times New Roman,serif" font-size="14.00">class = i</text>
</g>
<!-- 24&#45;&gt;25 -->
<g id="edge25" class="edge">
<title>24&#45;&gt;25</title>
<path fill="none" stroke="black" d="M1523.5,-222.91C1523.5,-212.2 1523.5,-200.62 1523.5,-189.78"/>
<polygon fill="black" stroke="black" points="1527,-189.67 1523.5,-179.67 1520,-189.67 1527,-189.67"/>
</g>
<!-- 26 -->
<g id="node27" class="node">
<title>26</title>
<polygon fill="#3ea0e6" stroke="black" points="1727.5,-187 1587.5,-187 1587.5,-104 1727.5,-104 1727.5,-187"/>
<text text-anchor="middle" x="1657.5" y="-171.8" font-family="Times New Roman,serif" font-size="14.00">education&#45;num &lt;= 3.0</text>
<text text-anchor="middle" x="1657.5" y="-156.8" font-family="Times New Roman,serif" font-size="14.00">gini = 0.049</text>
<text text-anchor="middle" x="1657.5" y="-141.8" font-family="Times New Roman,serif" font-size="14.00">samples = 357</text>
<text text-anchor="middle" x="1657.5" y="-126.8" font-family="Times New Roman,serif" font-size="14.00">value = [9, 348]</text>
<text text-anchor="middle" x="1657.5" y="-111.8" font-family="Times New Roman,serif" font-size="14.00">class = n</text>
</g>
<!-- 24&#45;&gt;26 -->
<g id="edge26" class="edge">
<title>24&#45;&gt;26</title>
<path fill="none" stroke="black" d="M1569.99,-222.91C1580.8,-213.47 1592.4,-203.34 1603.5,-193.65"/>
<polygon fill="black" stroke="black" points="1605.86,-196.23 1611.09,-187.02 1601.26,-190.96 1605.86,-196.23"/>
</g>
<!-- 27 -->
<g id="node28" class="node">
<title>27</title>
<polygon fill="#e58139" stroke="black" points="1697,-68 1606,-68 1606,0 1697,0 1697,-68"/>
<text text-anchor="middle" x="1651.5" y="-52.8" font-family="Times New Roman,serif" font-size="14.00">gini = 0.0</text>
<text text-anchor="middle" x="1651.5" y="-37.8" font-family="Times New Roman,serif" font-size="14.00">samples = 1</text>
<text text-anchor="middle" x="1651.5" y="-22.8" font-family="Times New Roman,serif" font-size="14.00">value = [1, 0]</text>
<text text-anchor="middle" x="1651.5" y="-7.8" font-family="Times New Roman,serif" font-size="14.00">class = i</text>
</g>
<!-- 26&#45;&gt;27 -->
<g id="edge27" class="edge">
<title>26&#45;&gt;27</title>
<path fill="none" stroke="black" d="M1655.27,-103.73C1654.82,-95.52 1654.34,-86.86 1653.89,-78.56"/>
<polygon fill="black" stroke="black" points="1657.37,-78.09 1653.32,-68.3 1650.38,-78.48 1657.37,-78.09"/>
</g>
<!-- 28 -->
<g id="node29" class="node">
<title>28</title>
<polygon fill="#3e9fe6" stroke="black" points="1819.5,-68 1715.5,-68 1715.5,0 1819.5,0 1819.5,-68"/>
<text text-anchor="middle" x="1767.5" y="-52.8" font-family="Times New Roman,serif" font-size="14.00">gini = 0.044</text>
<text text-anchor="middle" x="1767.5" y="-37.8" font-family="Times New Roman,serif" font-size="14.00">samples = 356</text>
<text text-anchor="middle" x="1767.5" y="-22.8" font-family="Times New Roman,serif" font-size="14.00">value = [8, 348]</text>
<text text-anchor="middle" x="1767.5" y="-7.8" font-family="Times New Roman,serif" font-size="14.00">class = n</text>
</g>
<!-- 26&#45;&gt;28 -->
<g id="edge28" class="edge">
<title>26&#45;&gt;28</title>
<path fill="none" stroke="black" d="M1698.46,-103.73C1707.71,-94.51 1717.54,-84.74 1726.78,-75.53"/>
<polygon fill="black" stroke="black" points="1729.43,-77.84 1734.05,-68.3 1724.49,-72.87 1729.43,-77.84"/>
</g>
</g>
</svg>
